# xmcd
#
# Track frame offsets:
#	150
#	33101
#	73448
#	85242
#	109980
#	144494
#	154158
#	176202
#	211236
#	242073
#	273274
#
# Disc length: 4098 seconds
#
# Revision: 1
# Processed by: cddbd v1.5.2PL0 Copyright (c) Steve Scherf et al.
# Submitted via: audiograbber 1.83.01
#
DISCID=9f10000b
DTITLE=Grateful Dead - 78-12-17 Fox Theatre, Atlanta GA
DYEAR=1900
DGENRE=
TTITLE0=Jack Straw
TTITLE1=They Love Each Other
TTITLE2=Mama Tried
TTITLE3=Mexicali Blues
TTITLE4=Peggy-O
TTITLE5=Tuning
TTITLE6=Passenger
TTITLE7=Stagger Lee
TTITLE8=New Minglewood Blues
TTITLE9=Brown Eyed Women
TTITLE10=The Music Never Stopped
EXTD=
EXTT0=
EXTT1=
EXTT2=
EXTT3=
EXTT4=
EXTT5=
EXTT6=
EXTT7=
EXTT8=
EXTT9=
EXTT10=
PLAYORDER=
